<svg xmlns="http://www.w3.org/2000/svg" viewBox="0 0 700 875" role="img" aria-label="STONE TEE">
  <rect width="700" height="875" fill="#e6e1d8"/>
  <path d="M0 662c160-72 310-87 450-45 94 29 177 25 250-11v269H0Z" fill="#bbb5aa"/>
  <path d="M258 201h184l78 87 81 243-96 42-48-125-13 239c-2 36-32 64-68 64h-64c-37 0-67-29-68-66l-8-238-53 129-93-42 89-246Z" fill="#211f1c"/>
  <path d="M289 209c32 35 78 47 124 2l28 53c-58 37-120 37-184 0Z" fill="#0f0e0d"/>
  <path d="M301 351h97" stroke="#d8d2c8" stroke-width="4" opacity=".18"/>
</svg>
